<?xml version="1.0" standalone="no"?>
<!DOCTYPE svg PUBLIC "-//W3C//DTD SVG 20010904//EN"
 "http://www.w3.org/TR/2001/REC-SVG-20010904/DTD/svg10.dtd">
<svg version="1.0" xmlns="http://www.w3.org/2000/svg"
 width="231.000000pt" height="231.000000pt" viewBox="0 0 231.000000 231.000000"
 preserveAspectRatio="xMidYMid meet">
<metadata>
Created by potrace 1.11, written by Peter Selinger 2001-2013
</metadata>
<g transform="translate(0.000000,231.000000) scale(0.100000,-0.100000)"
fill="#000000" stroke="none">
<path d="M998 2295 c-2 -2 -21 -5 -43 -8 -65 -9 -122 -32 -193 -80 -117 -78
-208 -214 -278 -417 -32 -92 -33 -99 -29 -220 2 -69 6 -136 9 -150 2 -14 7
-41 10 -60 4 -29 17 -89 30 -145 5 -20 62 -142 102 -221 38 -72 200 -311 265
-389 13 -16 59 -65 102 -108 42 -43 77 -84 77 -89 0 -12 -47 -79 -63 -89 -15
-10 3 -68 23 -74 10 -3 30 0 44 6 42 20 51 2 52 -109 2 -151 0 -142 33 -142
27 0 29 2 22 33 -9 39 -7 154 3 183 4 15 18 24 41 28 45 9 75 57 49 78 -40 32
-74 74 -74 90 0 10 37 55 83 101 45 46 114 119 152 162 39 43 77 86 85 95 48
51 122 143 157 195 76 113 169 319 193 428 45 207 -38 483 -200 661 -36 40
-39 43 -80 77 -62 52 -240 150 -240 132 0 -3 -6 -1 -12 5 -22 18 -133 33 -227
31 -50 -1 -91 -3 -93 -4z"/>
</g>
</svg>
